<svg width="104" height="104" viewBox="0 0 104 104" fill="none" xmlns="http://www.w3.org/2000/svg">
<path d="M52 103C80.1665 103 103 80.1665 103 52C103 23.8335 80.1665 1 52 1C23.8335 1 1 23.8335 1 52C1 80.1665 23.8335 103 52 103Z" fill="white" stroke="#0038FF" stroke-width="2"/>
<path d="M78.1445 30.277H72.2408V24.3735C72.241 22.518 70.7227 21 68.8681 21H25.8554C24 21 22.482 22.518 22.482 24.3735V78.3493C22.482 80.2047 24 81.7228 25.8555 81.7228H31.7592V87.6265C31.7592 89.4819 33.2765 91 35.1327 91H63.8065C65.6611 91 68.2857 89.9593 69.6359 88.6884L79.0598 79.8178C80.4117 78.5469 81.5165 75.988 81.5165 74.1326L81.5181 33.6508C81.518 31.7952 79.9999 30.277 78.1445 30.277ZM31.7589 33.6507V79.1927H25.8554C25.3983 79.1927 25.0121 78.8065 25.0121 78.3494V24.3735C25.0121 23.9165 25.3983 23.5302 25.8554 23.5302H68.8682C69.3245 23.5302 69.7115 23.9165 69.7115 24.3735V30.2772H35.1324C33.2762 30.2772 31.7589 31.7952 31.7589 33.6507ZM77.3257 77.9757L67.9018 86.8455C67.7087 87.027 67.4573 87.2048 67.1798 87.3742V79.6144C67.1798 79.035 67.4134 78.5136 67.7988 78.1258C68.1877 77.7404 68.7088 77.506 69.2882 77.506H77.7262C77.5954 77.6838 77.4614 77.8474 77.3257 77.9757ZM78.9861 74.1324C78.9861 74.3828 78.9404 74.6729 78.8714 74.9756H69.2881C66.7286 74.9807 64.6547 77.0546 64.6495 79.6142V88.3675C64.3485 88.4283 64.0584 88.4695 63.8062 88.4695H35.1324V88.4696C34.6744 88.4696 34.2891 88.0834 34.2891 87.6263V33.6506C34.2891 33.1935 34.6745 32.8073 35.1324 32.8073H78.1443C78.6014 32.8073 78.9876 33.1935 78.9876 33.6506L78.9861 74.1324Z" fill="black"/>
<path d="M68.8682 42.0842H44.4104C43.7113 42.0842 43.1454 42.6501 43.1454 43.3493C43.1454 44.0485 43.7114 44.6143 44.4104 44.6143H68.8682C69.5665 44.6143 70.1332 44.0485 70.1332 43.3493C70.1332 42.6501 69.5665 42.0842 68.8682 42.0842Z" fill="black"/>
<path d="M68.8682 58.9517H44.4104C43.7113 58.9517 43.1454 59.5175 43.1454 60.2167C43.1454 60.9159 43.7114 61.4818 44.4104 61.4818H68.8682C69.5665 61.4818 70.1332 60.9159 70.1332 60.2167C70.1332 59.5174 69.5665 58.9517 68.8682 58.9517Z" fill="black"/>
<path d="M57.9044 67.3855H44.4106C43.7114 67.3855 43.1455 67.9514 43.1455 68.6505C43.1455 69.3497 43.7114 69.9156 44.4106 69.9156H57.9044C58.6028 69.9156 59.1686 69.3497 59.1686 68.6505C59.1686 67.9514 58.6028 67.3855 57.9044 67.3855Z" fill="black"/>
<path d="M68.8682 50.5179H44.4104C43.7113 50.5179 43.1454 51.0838 43.1454 51.783C43.1454 52.4822 43.7114 53.0481 44.4104 53.0481H68.8682C69.5665 53.0481 70.1332 52.4822 70.1332 51.783C70.1332 51.0838 69.5665 50.5179 68.8682 50.5179Z" fill="black"/>
</svg>
