<svg width="173" height="46" viewBox="0 0 173 46" fill="none" xmlns="http://www.w3.org/2000/svg">
<path d="M69.836 21.5722V14.8402L67.694 19.5742H65.822L63.68 14.8402V21.5722H60.17V8.7922H64.004L66.758 14.8042L69.53 8.7922H73.346V21.5722H69.836ZM64.796 41.6362C63.836 41.5162 63.008 41.2942 62.312 40.9702C61.628 40.6462 61.058 40.2382 60.602 39.7462C60.158 39.2542 59.828 38.6902 59.612 38.0542C59.396 37.4182 59.288 36.7282 59.288 35.9842C59.288 35.2762 59.39 34.6102 59.594 33.9862C59.798 33.3502 60.116 32.7862 60.548 32.2942C60.992 31.7902 61.562 31.3702 62.258 31.0342C62.954 30.6862 63.8 30.4462 64.796 30.3142V28.5322H68.108V30.3142C69.092 30.4462 69.932 30.6862 70.628 31.0342C71.324 31.3702 71.894 31.7902 72.338 32.2942C72.782 32.7862 73.106 33.3502 73.31 33.9862C73.514 34.6102 73.616 35.2762 73.616 35.9842C73.616 36.7282 73.508 37.4182 73.292 38.0542C73.076 38.6782 72.74 39.2362 72.284 39.7282C71.84 40.2082 71.27 40.6162 70.574 40.9522C69.878 41.2762 69.056 41.4982 68.108 41.6182V43.1122H64.796V41.6362ZM68.108 38.3962C68.912 38.2282 69.47 37.9342 69.782 37.5142C70.094 37.0942 70.25 36.5782 70.25 35.9662C70.25 35.3182 70.088 34.7962 69.764 34.4002C69.452 34.0042 68.9 33.7222 68.108 33.5542V38.3962ZM64.796 33.5542C64.004 33.7222 63.446 34.0042 63.122 34.4002C62.798 34.7962 62.636 35.3182 62.636 35.9662C62.636 36.5782 62.792 37.0942 63.104 37.5142C63.428 37.9342 63.992 38.2282 64.796 38.3962V33.5542Z" fill="#0038FF"/>
<path d="M78.9315 8.7922H82.1355L86.5635 21.5722H82.9995L82.2255 19.0702H78.8235L78.0675 21.5722H74.4855L78.9315 8.7922ZM81.6675 16.7302L80.5335 12.7702L79.3455 16.7302H81.6675ZM97.5073 5.0842C97.5073 5.5162 97.4173 5.9122 97.2373 6.2722C97.0573 6.6202 96.7993 6.9262 96.4633 7.1902C96.1273 7.4422 95.7253 7.6402 95.2573 7.7842C94.8013 7.9282 94.2973 8.0002 93.7453 8.0002C93.1813 8.0002 92.6713 7.9282 92.2153 7.7842C91.7593 7.6402 91.3633 7.4422 91.0273 7.1902C90.6913 6.9262 90.4333 6.6202 90.2533 6.2722C90.0733 5.9122 89.9833 5.5162 89.9833 5.0842H92.1073C92.1073 5.3962 92.2693 5.6602 92.5933 5.8762C92.9293 6.0802 93.3133 6.1822 93.7453 6.1822C94.1653 6.1822 94.5253 6.0802 94.8253 5.8762C95.1373 5.6602 95.3233 5.3962 95.3833 5.0842H97.5073ZM91.2073 16.1002L96.6433 8.7922H99.1993V21.5722H95.6893V14.4802L90.3073 21.5722H87.6973V8.7922H91.2073V16.1002ZM100.757 15.0742C100.757 14.2942 100.901 13.5262 101.189 12.7702C101.489 12.0142 101.921 11.3362 102.485 10.7362C103.049 10.1362 103.733 9.6502 104.537 9.2782C105.341 8.9062 106.259 8.7202 107.291 8.7202C108.527 8.7202 109.595 8.9782 110.495 9.4942C111.407 9.9982 112.085 10.6702 112.529 11.5102L109.847 13.4182C109.727 13.1062 109.565 12.8482 109.361 12.6442C109.169 12.4402 108.953 12.2782 108.713 12.1582C108.473 12.0382 108.221 11.9542 107.957 11.9062C107.705 11.8582 107.459 11.8342 107.219 11.8342C106.715 11.8342 106.277 11.9362 105.905 12.1402C105.545 12.3322 105.245 12.5902 105.005 12.9142C104.777 13.2262 104.603 13.5862 104.483 13.9942C104.375 14.3902 104.321 14.7862 104.321 15.1822C104.321 15.6262 104.387 16.0522 104.519 16.4602C104.651 16.8682 104.843 17.2282 105.095 17.5402C105.347 17.8522 105.653 18.1042 106.013 18.2962C106.385 18.4762 106.799 18.5662 107.255 18.5662C107.495 18.5662 107.741 18.5422 107.993 18.4942C108.245 18.4342 108.485 18.3442 108.713 18.2242C108.953 18.0922 109.163 17.9302 109.343 17.7382C109.535 17.5342 109.685 17.2882 109.793 17.0002L112.655 18.7102C112.463 19.1782 112.169 19.5982 111.773 19.9702C111.389 20.3422 110.945 20.6542 110.441 20.9062C109.949 21.1582 109.415 21.3502 108.839 21.4822C108.275 21.6142 107.723 21.6802 107.183 21.6802C106.235 21.6802 105.365 21.4942 104.573 21.1222C103.793 20.7382 103.115 20.2342 102.539 19.6102C101.975 18.9862 101.537 18.2782 101.225 17.4862C100.913 16.6942 100.757 15.8902 100.757 15.0742ZM123.859 11.8522H120.187V21.5722H116.677V11.8522H112.987V8.7922H123.859V11.8522ZM134.317 18.5122V21.5722H125.209V8.7922H134.155V11.8522H128.719V13.6522H133.363V16.4962H128.719V18.5122H134.317ZM136.02 21.5722V8.7922H141.528C142.152 8.7922 142.728 8.9242 143.256 9.1882C143.784 9.4402 144.234 9.7762 144.606 10.1962C144.99 10.6042 145.29 11.0782 145.506 11.6182C145.722 12.1462 145.83 12.6802 145.83 13.2202C145.83 13.7842 145.728 14.3362 145.524 14.8762C145.32 15.4042 145.032 15.8782 144.66 16.2982C144.3 16.7062 143.856 17.0362 143.328 17.2882C142.812 17.5282 142.242 17.6482 141.618 17.6482H139.53V21.5722H136.02ZM139.53 14.5882H141.384C141.6 14.5882 141.798 14.4922 141.978 14.3002C142.17 14.0962 142.266 13.7362 142.266 13.2202C142.266 12.6922 142.158 12.3322 141.942 12.1402C141.726 11.9482 141.51 11.8522 141.294 11.8522H139.53V14.5882ZM158.609 8.7922V21.5722H155.099V16.5682H150.815V21.5722H147.305V8.7922H150.815V13.5082H155.099V8.7922H158.609ZM167.497 21.5722V17.1082H166.561L163.753 21.5722H159.991L163.069 16.7122C162.373 16.3882 161.827 15.9082 161.431 15.2722C161.035 14.6242 160.837 13.8502 160.837 12.9502C160.837 12.3382 160.945 11.7802 161.161 11.2762C161.377 10.7722 161.671 10.3342 162.043 9.9622C162.427 9.5902 162.883 9.3022 163.411 9.0982C163.939 8.8942 164.515 8.7922 165.139 8.7922H171.007V21.5722H167.497ZM167.497 11.7622H165.643C165.499 11.7622 165.349 11.7802 165.193 11.8162C165.049 11.8522 164.917 11.9182 164.797 12.0142C164.689 12.0982 164.593 12.2182 164.509 12.3742C164.437 12.5302 164.401 12.7222 164.401 12.9502C164.401 13.1902 164.437 13.3882 164.509 13.5442C164.581 13.6882 164.671 13.8082 164.779 13.9042C164.899 13.9882 165.031 14.0482 165.175 14.0842C165.331 14.1202 165.487 14.1382 165.643 14.1382H167.497V11.7622ZM80.7643 42.6802C79.7923 42.6802 78.9103 42.4942 78.1183 42.1222C77.3263 41.7502 76.6483 41.2642 76.0843 40.6642C75.5203 40.0522 75.0823 39.3562 74.7703 38.5762C74.4583 37.7962 74.3023 36.9922 74.3023 36.1642C74.3023 35.3242 74.4643 34.5142 74.7883 33.7342C75.1123 32.9542 75.5623 32.2702 76.1383 31.6822C76.7263 31.0822 77.4163 30.6082 78.2083 30.2602C79.0123 29.9002 79.8883 29.7202 80.8363 29.7202C81.8083 29.7202 82.6903 29.9062 83.4823 30.2782C84.2743 30.6502 84.9523 31.1422 85.5163 31.7542C86.0803 32.3662 86.5123 33.0622 86.8123 33.8422C87.1243 34.6222 87.2803 35.4202 87.2803 36.2362C87.2803 37.0762 87.1183 37.8862 86.7943 38.6662C86.4703 39.4342 86.0203 40.1182 85.4443 40.7182C84.8683 41.3062 84.1783 41.7802 83.3743 42.1402C82.5823 42.5002 81.7123 42.6802 80.7643 42.6802ZM77.8663 36.2002C77.8663 36.6322 77.9263 37.0522 78.0463 37.4602C78.1663 37.8562 78.3463 38.2102 78.5863 38.5222C78.8263 38.8342 79.1263 39.0862 79.4863 39.2782C79.8583 39.4702 80.2963 39.5662 80.8003 39.5662C81.3043 39.5662 81.7423 39.4702 82.1143 39.2782C82.4863 39.0742 82.7863 38.8162 83.0143 38.5042C83.2543 38.1802 83.4283 37.8142 83.5363 37.4062C83.6563 36.9982 83.7163 36.5842 83.7163 36.1642C83.7163 35.7322 83.6563 35.3182 83.5363 34.9222C83.4163 34.5142 83.2303 34.1602 82.9783 33.8602C82.7383 33.5482 82.4323 33.3022 82.0603 33.1222C81.7003 32.9302 81.2743 32.8342 80.7823 32.8342C80.2783 32.8342 79.8403 32.9302 79.4683 33.1222C79.1083 33.3142 78.8083 33.5722 78.5683 33.8962C78.3283 34.2082 78.1483 34.5682 78.0283 34.9762C77.9203 35.3722 77.8663 35.7802 77.8663 36.2002ZM100.144 29.7922V42.5722H96.6339V37.5682H92.3499V42.5722H88.8399V29.7922H92.3499V34.5082H96.6339V29.7922H100.144ZM112.363 32.8522H108.691V42.5722H105.181V32.8522H101.491V29.7922H112.363V32.8522ZM115.81 29.7922H119.014L123.442 42.5722H119.878L119.104 40.0702H115.702L114.946 42.5722H111.364L115.81 29.7922ZM118.546 37.7302L117.412 33.7702L116.224 37.7302H118.546ZM124.504 42.5722V29.7922H128.014V42.5722H124.504ZM141.161 39.2962C141.161 39.8722 141.041 40.3702 140.801 40.7902C140.561 41.1982 140.231 41.5342 139.811 41.7982C139.391 42.0622 138.899 42.2602 138.335 42.3922C137.783 42.5122 137.195 42.5722 136.571 42.5722H130.289V29.7922H137.705C138.149 29.7922 138.551 29.8882 138.911 30.0802C139.271 30.2722 139.577 30.5242 139.829 30.8362C140.081 31.1362 140.273 31.4842 140.405 31.8802C140.549 32.2642 140.621 32.6602 140.621 33.0682C140.621 33.6682 140.465 34.2442 140.153 34.7962C139.853 35.3362 139.397 35.7442 138.785 36.0202C139.517 36.2362 140.093 36.6142 140.513 37.1542C140.945 37.6822 141.161 38.3962 141.161 39.2962ZM137.597 38.5762C137.597 38.2642 137.513 38.0062 137.345 37.8022C137.177 37.5862 136.961 37.4782 136.697 37.4782H133.799V39.6202H136.571C136.859 39.6202 137.099 39.5302 137.291 39.3502C137.495 39.1702 137.597 38.9122 137.597 38.5762ZM133.799 32.7802V34.7422H136.193C136.433 34.7422 136.649 34.6762 136.841 34.5442C137.045 34.4122 137.147 34.1482 137.147 33.7522C137.147 33.4042 137.063 33.1582 136.895 33.0142C136.727 32.8582 136.529 32.7802 136.301 32.7802H133.799Z" fill="black"/>
<g clip-path="url(#clip0)">
<path d="M40.7587 39.2158L42.2842 36.3995C42.5014 36.3862 42.7202 36.337 42.9364 36.337H48.813L50.0165 37.8739C50.1779 41.5789 50.1155 44.8559 48.418 48.3426C45.8186 49.0594 41.8379 48.8099 39.995 47.1278C40.3658 46.6913 39.1403 46.2645 39.402 45.8443C40.774 43.6411 40.775 41.5163 40.7587 39.2158Z" fill="#E6EEFF"/>
<path d="M42.2843 36.3995L42.2958 39.2158C42.3151 41.955 42.31 44.4023 39.9952 47.1279C39.5159 46.6901 39.2189 46.1954 39.2189 45.6613C39.2189 47.9201 35.099 48.7761 32.792 48.7212L31.2779 46.3017C31.4146 41.0298 36.9797 36.7255 42.2843 36.3995Z" fill="#DAE2F2"/>
<path d="M0.692328 25.5783C0.692328 27.4841 1.21479 29.3591 2.16771 31.019C3.33579 32.9556 4.99581 34.462 6.99376 35.3533C6.44045 39.9949 7.48569 44.7083 9.97556 48.6121C12.5884 48.2739 14.525 47.0751 14.525 45.6612C14.525 49.7188 26.9231 49.7188 26.9231 45.6612C26.9231 47.321 29.5358 48.6428 32.7942 48.7351L32.8249 47.8436C32.948 42.3414 37.4358 37.8739 42.9382 37.8739H50.0184C49.6802 30.0661 43.2148 23.8569 35.7451 24.0413C32.1488 24.1642 29.167 25.609 26.923 27.6377C24.0644 30.1891 22.3635 33.6319 22.3635 36.337C22.3635 38.0276 20.9802 39.4109 19.2895 39.4109C17.0457 39.4109 15.5702 37.0439 16.4924 35.0766C18.0601 34.2467 19.4126 33.0479 20.4269 31.5417C21.595 29.7588 22.2098 27.6993 22.2098 25.5783C22.2098 24.7175 21.5336 24.0413 20.6728 24.0413H14.525C13.3569 24.0413 12.2811 24.5023 11.451 25.2094C10.621 24.5023 9.54521 24.0413 8.37712 24.0413H2.22929C1.36849 24.0413 0.692328 24.7175 0.692328 25.5783Z" fill="#A1A7B3"/>
<path d="M0.692326 25.5782C0.692326 27.484 1.21479 29.359 2.1677 31.019C3.33579 32.9555 4.99581 34.4619 6.99376 35.3533C6.44045 39.9949 7.48569 44.7082 9.97556 48.612C12.5884 48.2739 14.525 47.075 14.525 45.6611C14.525 49.7187 26.9231 49.7187 26.9231 45.6611V27.6376C24.0644 30.1891 22.3635 33.6319 22.3635 36.3369C22.3635 38.0276 20.9802 39.4108 19.2895 39.4108C17.0457 39.4108 15.5702 37.0438 16.4924 35.0765C18.0601 34.2467 19.4126 33.0478 20.4269 31.5416C21.595 29.7587 22.2098 27.6992 22.2098 25.5782C22.2098 24.7174 21.5336 24.0413 20.6728 24.0413H14.525C13.3569 24.0413 12.2811 24.5022 11.451 25.2093C10.621 24.5022 9.54521 24.0413 8.37712 24.0413H2.22928C1.36849 24.0413 0.692326 24.7174 0.692326 25.5782Z" fill="#979CA7"/>
<path d="M33.071 36.3369C32.2221 36.3369 31.534 35.6488 31.534 34.8C31.534 33.9511 32.2221 33.263 33.071 33.263C33.9198 33.263 34.6079 33.9511 34.6079 34.8C34.6079 35.6488 33.9198 36.3369 33.071 36.3369Z" fill="#53565C"/>
</g>
<path d="M36.6114 13.0366C36.6114 11.5873 36.4353 10.1521 36.0933 8.81309C35.7513 7.47406 35.25 6.25739 34.618 5.23255C33.9861 4.20771 33.2358 3.39475 32.4101 2.84011C31.5844 2.28547 30.6994 2 29.8057 2C28.9119 2 28.027 2.28547 27.2013 2.84011C26.3756 3.39475 25.6253 4.20771 24.9933 5.23255C24.3614 6.2574 23.8601 7.47406 23.5181 8.81309C23.176 10.1521 23 11.5873 23 13.0366" stroke="#0038FF" stroke-width="3" stroke-linecap="round" stroke-linejoin="round"/>
<path d="M50.1944 13.0366C50.1944 11.5873 50.0183 10.1521 49.6763 8.81309C49.3343 7.47406 48.833 6.25739 48.201 5.23255C47.5691 4.20771 46.8188 3.39475 45.9931 2.84011C45.1674 2.28547 44.2824 2 43.3887 2C42.495 2 41.61 2.28547 40.7843 2.84011C39.9586 3.39475 39.2083 4.20771 38.5763 5.23255C37.9444 6.2574 37.4431 7.47406 37.1011 8.81309C36.759 10.1521 36.583 11.5873 36.583 13.0366" stroke="#0038FF" stroke-width="3" stroke-linecap="round" stroke-linejoin="round"/>
<path d="M36.5972 21.1744L36.5972 11.1744" stroke="#0038FF" stroke-width="3" stroke-linecap="round" stroke-linejoin="round"/>
<defs>
<clipPath id="clip0">
<rect width="52.4615" height="40.5047" fill="white" transform="matrix(-1 0 0 1 53.1539 5.4953)"/>
</clipPath>
</defs>
</svg>
