<svg width="172" height="49" viewBox="0 0 172 49" fill="none" xmlns="http://www.w3.org/2000/svg">
<path d="M68.836 24.5723V17.8403L66.694 22.5743H64.822L62.68 17.8403V24.5723H59.17V11.7923H63.004L65.758 17.8043L68.53 11.7923H72.346V24.5723H68.836ZM63.796 44.6363C62.836 44.5163 62.008 44.2943 61.312 43.9703C60.628 43.6463 60.058 43.2383 59.602 42.7463C59.158 42.2543 58.828 41.6903 58.612 41.0543C58.396 40.4183 58.288 39.7283 58.288 38.9843C58.288 38.2763 58.39 37.6103 58.594 36.9863C58.798 36.3503 59.116 35.7863 59.548 35.2943C59.992 34.7903 60.562 34.3703 61.258 34.0343C61.954 33.6863 62.8 33.4463 63.796 33.3143V31.5323H67.108V33.3143C68.092 33.4463 68.932 33.6863 69.628 34.0343C70.324 34.3703 70.894 34.7903 71.338 35.2943C71.782 35.7863 72.106 36.3503 72.31 36.9863C72.514 37.6103 72.616 38.2763 72.616 38.9843C72.616 39.7283 72.508 40.4183 72.292 41.0543C72.076 41.6783 71.74 42.2363 71.284 42.7283C70.84 43.2083 70.27 43.6163 69.574 43.9523C68.878 44.2763 68.056 44.4983 67.108 44.6183V46.1123H63.796V44.6363ZM67.108 41.3963C67.912 41.2283 68.47 40.9343 68.782 40.5143C69.094 40.0943 69.25 39.5783 69.25 38.9663C69.25 38.3183 69.088 37.7963 68.764 37.4003C68.452 37.0043 67.9 36.7223 67.108 36.5543V41.3963ZM63.796 36.5543C63.004 36.7223 62.446 37.0043 62.122 37.4003C61.798 37.7963 61.636 38.3183 61.636 38.9663C61.636 39.5783 61.792 40.0943 62.104 40.5143C62.428 40.9343 62.992 41.2283 63.796 41.3963V36.5543Z" fill="#54CCFF"/>
<path d="M77.9315 11.7923H81.1355L85.5635 24.5723H81.9995L81.2255 22.0703H77.8235L77.0675 24.5723H73.4855L77.9315 11.7923ZM80.6675 19.7303L79.5335 15.7703L78.3455 19.7303H80.6675ZM96.5073 8.08426C96.5073 8.51626 96.4173 8.91226 96.2373 9.27227C96.0573 9.62027 95.7993 9.92627 95.4633 10.1903C95.1273 10.4423 94.7253 10.6403 94.2573 10.7843C93.8013 10.9283 93.2973 11.0003 92.7453 11.0003C92.1813 11.0003 91.6713 10.9283 91.2153 10.7843C90.7593 10.6403 90.3633 10.4423 90.0273 10.1903C89.6913 9.92627 89.4333 9.62027 89.2533 9.27227C89.0733 8.91226 88.9833 8.51626 88.9833 8.08426H91.1073C91.1073 8.39626 91.2693 8.66026 91.5933 8.87626C91.9293 9.08027 92.3133 9.18227 92.7453 9.18227C93.1653 9.18227 93.5253 9.08027 93.8253 8.87626C94.1373 8.66026 94.3233 8.39626 94.3833 8.08426H96.5073ZM90.2073 19.1003L95.6433 11.7923H98.1993V24.5723H94.6893V17.4803L89.3073 24.5723H86.6973V11.7923H90.2073V19.1003ZM99.7573 18.0743C99.7573 17.2943 99.9013 16.5263 100.189 15.7703C100.489 15.0143 100.921 14.3363 101.485 13.7363C102.049 13.1363 102.733 12.6503 103.537 12.2783C104.341 11.9063 105.259 11.7203 106.291 11.7203C107.527 11.7203 108.595 11.9783 109.495 12.4943C110.407 12.9983 111.085 13.6703 111.529 14.5103L108.847 16.4183C108.727 16.1063 108.565 15.8483 108.361 15.6443C108.169 15.4403 107.953 15.2783 107.713 15.1583C107.473 15.0383 107.221 14.9543 106.957 14.9063C106.705 14.8583 106.459 14.8343 106.219 14.8343C105.715 14.8343 105.277 14.9363 104.905 15.1403C104.545 15.3323 104.245 15.5903 104.005 15.9143C103.777 16.2263 103.603 16.5863 103.483 16.9943C103.375 17.3903 103.321 17.7863 103.321 18.1823C103.321 18.6263 103.387 19.0523 103.519 19.4603C103.651 19.8683 103.843 20.2283 104.095 20.5403C104.347 20.8523 104.653 21.1043 105.013 21.2963C105.385 21.4763 105.799 21.5663 106.255 21.5663C106.495 21.5663 106.741 21.5423 106.993 21.4943C107.245 21.4343 107.485 21.3443 107.713 21.2243C107.953 21.0923 108.163 20.9303 108.343 20.7383C108.535 20.5343 108.685 20.2883 108.793 20.0003L111.655 21.7103C111.463 22.1783 111.169 22.5983 110.773 22.9703C110.389 23.3423 109.945 23.6543 109.441 23.9063C108.949 24.1583 108.415 24.3503 107.839 24.4823C107.275 24.6143 106.723 24.6803 106.183 24.6803C105.235 24.6803 104.365 24.4943 103.573 24.1223C102.793 23.7383 102.115 23.2343 101.539 22.6103C100.975 21.9863 100.537 21.2783 100.225 20.4863C99.9133 19.6943 99.7573 18.8903 99.7573 18.0743ZM122.859 14.8523H119.187V24.5723H115.677V14.8523H111.987V11.7923H122.859V14.8523ZM133.317 21.5123V24.5723H124.209V11.7923H133.155V14.8523H127.719V16.6523H132.363V19.4963H127.719V21.5123H133.317ZM135.02 24.5723V11.7923H140.528C141.152 11.7923 141.728 11.9243 142.256 12.1883C142.784 12.4403 143.234 12.7763 143.606 13.1963C143.99 13.6043 144.29 14.0783 144.506 14.6183C144.722 15.1463 144.83 15.6803 144.83 16.2203C144.83 16.7843 144.728 17.3363 144.524 17.8763C144.32 18.4043 144.032 18.8783 143.66 19.2983C143.3 19.7063 142.856 20.0363 142.328 20.2883C141.812 20.5283 141.242 20.6483 140.618 20.6483H138.53V24.5723H135.02ZM138.53 17.5883H140.384C140.6 17.5883 140.798 17.4923 140.978 17.3003C141.17 17.0963 141.266 16.7363 141.266 16.2203C141.266 15.6923 141.158 15.3323 140.942 15.1403C140.726 14.9483 140.51 14.8523 140.294 14.8523H138.53V17.5883ZM157.609 11.7923V24.5723H154.099V19.5683H149.815V24.5723H146.305V11.7923H149.815V16.5083H154.099V11.7923H157.609ZM166.497 24.5723V20.1083H165.561L162.753 24.5723H158.991L162.069 19.7123C161.373 19.3883 160.827 18.9083 160.431 18.2723C160.035 17.6243 159.837 16.8503 159.837 15.9503C159.837 15.3383 159.945 14.7803 160.161 14.2763C160.377 13.7723 160.671 13.3343 161.043 12.9623C161.427 12.5903 161.883 12.3023 162.411 12.0983C162.939 11.8943 163.515 11.7923 164.139 11.7923H170.007V24.5723H166.497ZM166.497 14.7623H164.643C164.499 14.7623 164.349 14.7803 164.193 14.8163C164.049 14.8523 163.917 14.9183 163.797 15.0143C163.689 15.0983 163.593 15.2183 163.509 15.3743C163.437 15.5303 163.401 15.7223 163.401 15.9503C163.401 16.1903 163.437 16.3883 163.509 16.5443C163.581 16.6883 163.671 16.8083 163.779 16.9043C163.899 16.9883 164.031 17.0483 164.175 17.0843C164.331 17.1203 164.487 17.1383 164.643 17.1383H166.497V14.7623ZM79.7643 45.6803C78.7923 45.6803 77.9103 45.4943 77.1183 45.1223C76.3263 44.7503 75.6483 44.2643 75.0843 43.6643C74.5203 43.0523 74.0823 42.3563 73.7703 41.5763C73.4583 40.7963 73.3023 39.9923 73.3023 39.1643C73.3023 38.3243 73.4643 37.5143 73.7883 36.7343C74.1123 35.9543 74.5623 35.2703 75.1383 34.6823C75.7263 34.0823 76.4163 33.6083 77.2083 33.2603C78.0123 32.9003 78.8883 32.7203 79.8363 32.7203C80.8083 32.7203 81.6903 32.9063 82.4823 33.2783C83.2743 33.6503 83.9523 34.1423 84.5163 34.7543C85.0803 35.3663 85.5123 36.0623 85.8123 36.8423C86.1243 37.6223 86.2803 38.4203 86.2803 39.2363C86.2803 40.0763 86.1183 40.8863 85.7943 41.6663C85.4703 42.4343 85.0203 43.1183 84.4443 43.7183C83.8683 44.3063 83.1783 44.7803 82.3743 45.1403C81.5823 45.5003 80.7123 45.6803 79.7643 45.6803ZM76.8663 39.2003C76.8663 39.6323 76.9263 40.0523 77.0463 40.4603C77.1663 40.8563 77.3463 41.2103 77.5863 41.5223C77.8263 41.8343 78.1263 42.0863 78.4863 42.2783C78.8583 42.4703 79.2963 42.5663 79.8003 42.5663C80.3043 42.5663 80.7423 42.4703 81.1143 42.2783C81.4863 42.0743 81.7863 41.8163 82.0143 41.5043C82.2543 41.1803 82.4283 40.8143 82.5363 40.4063C82.6563 39.9983 82.7163 39.5843 82.7163 39.1643C82.7163 38.7323 82.6563 38.3183 82.5363 37.9223C82.4163 37.5143 82.2303 37.1603 81.9783 36.8603C81.7383 36.5483 81.4323 36.3023 81.0603 36.1223C80.7003 35.9303 80.2743 35.8343 79.7823 35.8343C79.2783 35.8343 78.8403 35.9303 78.4683 36.1223C78.1083 36.3143 77.8083 36.5723 77.5683 36.8963C77.3283 37.2083 77.1483 37.5683 77.0283 37.9763C76.9203 38.3723 76.8663 38.7803 76.8663 39.2003ZM99.1439 32.7923V45.5723H95.6339V40.5683H91.3499V45.5723H87.8399V32.7923H91.3499V37.5083H95.6339V32.7923H99.1439ZM111.363 35.8523H107.691V45.5723H104.181V35.8523H100.491V32.7923H111.363V35.8523ZM114.81 32.7923H118.014L122.442 45.5723H118.878L118.104 43.0703H114.702L113.946 45.5723H110.364L114.81 32.7923ZM117.546 40.7303L116.412 36.7703L115.224 40.7303H117.546ZM123.504 45.5723V32.7923H127.014V45.5723H123.504ZM140.161 42.2963C140.161 42.8723 140.041 43.3703 139.801 43.7903C139.561 44.1983 139.231 44.5343 138.811 44.7983C138.391 45.0623 137.899 45.2603 137.335 45.3923C136.783 45.5123 136.195 45.5723 135.571 45.5723H129.289V32.7923H136.705C137.149 32.7923 137.551 32.8883 137.911 33.0803C138.271 33.2723 138.577 33.5243 138.829 33.8363C139.081 34.1363 139.273 34.4843 139.405 34.8803C139.549 35.2643 139.621 35.6603 139.621 36.0683C139.621 36.6683 139.465 37.2443 139.153 37.7963C138.853 38.3363 138.397 38.7443 137.785 39.0203C138.517 39.2363 139.093 39.6143 139.513 40.1543C139.945 40.6823 140.161 41.3963 140.161 42.2963ZM136.597 41.5763C136.597 41.2643 136.513 41.0063 136.345 40.8023C136.177 40.5863 135.961 40.4783 135.697 40.4783H132.799V42.6203H135.571C135.859 42.6203 136.099 42.5303 136.291 42.3503C136.495 42.1703 136.597 41.9123 136.597 41.5763ZM132.799 35.7803V37.7423H135.193C135.433 37.7423 135.649 37.6763 135.841 37.5443C136.045 37.4123 136.147 37.1483 136.147 36.7523C136.147 36.4043 136.063 36.1583 135.895 36.0143C135.727 35.8583 135.529 35.7803 135.301 35.7803H132.799Z" fill="white"/>
<g clip-path="url(#clip0)">
<path d="M40.0664 39.2157L41.5919 36.3994C41.8091 36.3861 42.0279 36.3369 42.2441 36.3369H48.1207L49.3242 37.8739C49.4856 41.5789 49.4232 44.8559 47.7257 48.3425C45.1263 49.0594 41.1455 48.8098 39.3027 47.1277C39.6734 46.6912 38.448 46.2644 38.7097 45.8442C40.0817 43.6411 40.0827 41.5163 40.0664 39.2157Z" fill="#E6EEFF"/>
<path d="M41.592 36.3994L41.6034 39.2157C41.6228 41.9549 41.6177 44.4023 39.3029 47.1278C38.8236 46.6901 38.5265 46.1954 38.5265 45.6612C38.5265 47.92 34.4067 48.776 32.0997 48.7211L30.5856 46.3016C30.7223 41.0298 36.2874 36.7255 41.592 36.3994Z" fill="#DAE2F2"/>
<path d="M6.55045e-06 25.5783C6.55045e-06 27.4841 0.522469 29.3591 1.47538 31.0191C2.64347 32.9556 4.30349 34.462 6.30144 35.3534C5.74813 39.995 6.79337 44.7083 9.28324 48.6121C11.8961 48.274 13.8326 47.0752 13.8326 45.6613C13.8326 49.7188 26.2308 49.7188 26.2308 45.6613C26.2308 47.3211 28.8435 48.6429 32.1019 48.7352L32.1326 47.8436C32.2557 42.3414 36.7435 37.874 42.2459 37.874H49.326C48.9879 30.0661 42.5224 23.8569 35.0528 24.0414C31.4564 24.1642 28.4746 25.6091 26.2307 27.6377C23.372 30.1892 21.6711 33.632 21.6711 36.337C21.6711 38.0277 20.2879 39.411 18.5972 39.411C16.3534 39.411 14.8779 37.0439 15.8 35.0766C17.3677 34.2468 18.7203 33.0479 19.7346 31.5417C20.9027 29.7588 21.5174 27.6993 21.5174 25.5783C21.5174 24.7175 20.8413 24.0414 19.9805 24.0414H13.8326C12.6646 24.0414 11.5888 24.5023 10.7587 25.2094C9.92866 24.5023 8.85289 24.0414 7.6848 24.0414H1.53697C0.676166 24.0414 6.55045e-06 24.7175 6.55045e-06 25.5783Z" fill="#A1A7B3"/>
<path d="M3.8147e-06 25.5782C3.8147e-06 27.484 0.522466 29.359 1.47538 31.019C2.64347 32.9555 4.30349 34.4619 6.30143 35.3533C5.74813 39.9949 6.79336 44.7082 9.28324 48.612C11.8961 48.2739 13.8326 47.075 13.8326 45.6611C13.8326 49.7187 26.2308 49.7187 26.2308 45.6611V27.6376C23.372 30.1891 21.6711 33.6319 21.6711 36.3369C21.6711 38.0276 20.2879 39.4108 18.5972 39.4108C16.3534 39.4108 14.8779 37.0438 15.8 35.0765C17.3677 34.2467 18.7203 33.0478 19.7346 31.5416C20.9026 29.7587 21.5174 27.6992 21.5174 25.5782C21.5174 24.7174 20.8413 24.0413 19.9805 24.0413H13.8326C12.6645 24.0413 11.5888 24.5022 10.7587 25.2093C9.92866 24.5022 8.85289 24.0413 7.6848 24.0413H1.53696C0.676163 24.0413 3.8147e-06 24.7174 3.8147e-06 25.5782Z" fill="#979CA7"/>
<path d="M32.3786 36.3371C31.5298 36.3371 30.8417 35.649 30.8417 34.8001C30.8417 33.9513 31.5298 33.2632 32.3786 33.2632C33.2275 33.2632 33.9156 33.9513 33.9156 34.8001C33.9156 35.649 33.2275 36.3371 32.3786 36.3371Z" fill="#53565C"/>
</g>
<path d="M35.919 13.0366C35.919 11.5873 35.743 10.1521 35.401 8.81309C35.059 7.47406 34.5577 6.25739 33.9257 5.23255C33.2937 4.20771 32.5435 3.39475 31.7178 2.84011C30.8921 2.28547 30.0071 2 29.1134 2C28.2196 2 27.3346 2.28547 26.5089 2.84011C25.6832 3.39475 24.933 4.20771 24.301 5.23255C23.669 6.2574 23.1677 7.47406 22.8257 8.81309C22.4837 10.1521 22.3077 11.5873 22.3077 13.0366" stroke="#54CCFF" stroke-width="3" stroke-linecap="round" stroke-linejoin="round"/>
<path d="M49.502 13.0366C49.502 11.5873 49.326 10.1521 48.984 8.81309C48.642 7.47406 48.1407 6.25739 47.5087 5.23255C46.8767 4.20771 46.1265 3.39475 45.3008 2.84011C44.4751 2.28547 43.5901 2 42.6964 2C41.8026 2 40.9176 2.28547 40.0919 2.84011C39.2662 3.39475 38.516 4.20771 37.884 5.23255C37.2521 6.2574 36.7508 7.47406 36.4087 8.81309C36.0667 10.1521 35.8907 11.5873 35.8907 13.0366" stroke="#54CCFF" stroke-width="3" stroke-linecap="round" stroke-linejoin="round"/>
<path d="M35.9048 21.1743L35.9048 11.1743" stroke="#54CCFF" stroke-width="3" stroke-linecap="round" stroke-linejoin="round"/>
<defs>
<clipPath id="clip0">
<rect width="52.4615" height="40.5047" fill="white" transform="matrix(-1 0 0 1 52.4615 5.49536)"/>
</clipPath>
</defs>
</svg>
