<svg width="104" height="104" viewBox="0 0 104 104" fill="none" xmlns="http://www.w3.org/2000/svg">
<path d="M52 103C80.1665 103 103 80.1665 103 52C103 23.8335 80.1665 1 52 1C23.8335 1 1 23.8335 1 52C1 80.1665 23.8335 103 52 103Z" fill="white" stroke="#0038FF" stroke-width="2"/>
<g clip-path="url(#clip0)">
<path d="M80.9817 79.3116L71.7144 56.9387C71.4783 56.3689 70.825 56.098 70.255 56.3342C69.685 56.5704 69.4142 57.2238 69.6504 57.7936L78.0283 78.0193L70.3865 75.8051C69.8849 75.6596 69.3491 75.8815 69.0973 76.3391L65.2594 83.3083L56.27 61.6059C66.6454 59.6051 74.5068 50.4576 74.5068 39.5071C74.507 27.0967 64.4104 17 52 17C39.5896 17 29.4929 27.0967 29.4929 39.5071C29.4929 44.5338 31.1497 49.1806 33.9455 52.9311L23.0184 79.3116C22.8541 79.7084 22.9317 80.1641 23.2181 80.484C23.5044 80.804 23.9489 80.9314 24.3613 80.812L33.3769 78.1995L37.9045 86.4218C38.1017 86.7797 38.4775 87 38.8828 87C38.9033 87 38.924 86.9994 38.9447 86.9984C39.3735 86.9745 39.7506 86.7072 39.915 86.3104L48.5736 65.4068C48.8097 64.8368 48.539 64.1834 47.9691 63.9474C47.3991 63.7113 46.7457 63.9819 46.5096 64.5519L38.7404 83.3083L34.9027 76.3391C34.6507 75.8815 34.1147 75.6596 33.6134 75.8051L25.9718 78.0193L35.5628 54.8643C39.6732 59.2609 45.5207 62.014 52 62.014C52.6689 62.014 53.3305 61.9829 53.9846 61.9256L64.0851 86.3104C64.2494 86.7072 64.6267 86.9745 65.0553 86.9982C65.0762 86.9994 65.0967 87 65.1174 87C65.5227 87 65.8984 86.7797 66.0955 86.4218L70.6233 78.1995L79.6389 80.812C80.0516 80.9316 80.4957 80.804 80.7821 80.484C81.0685 80.1641 81.1459 79.7084 80.9817 79.3116ZM31.727 39.5071C31.727 28.3285 40.8215 19.234 52 19.234C63.1786 19.234 72.2729 28.3285 72.2729 39.5071C72.2729 50.6856 63.1786 59.78 52 59.78C40.8215 59.78 31.727 50.6856 31.727 39.5071Z" fill="black"/>
<path d="M64.9067 35.3133C64.7781 34.9175 64.4398 34.6258 64.0291 34.5569L56.5128 33.2955L52.9906 26.537C52.7982 26.1678 52.4164 25.9362 52 25.9362C51.5837 25.9362 51.2019 26.1678 51.0094 26.537L47.4871 33.2955L39.9709 34.5569C39.5603 34.6257 39.222 34.9173 39.0934 35.3133C38.9647 35.7093 39.0668 36.1439 39.3586 36.4411L44.698 41.8795L43.575 49.4177C43.5136 49.8295 43.6864 50.2412 44.0233 50.4861C44.3599 50.7306 44.8051 50.7677 45.1777 50.5823L52 47.1847L58.8222 50.5823C58.9799 50.6608 59.1503 50.6995 59.3201 50.6995C59.552 50.6995 59.7824 50.6274 59.9767 50.4862C60.3136 50.2414 60.4864 49.8297 60.425 49.4179L59.3022 41.8796L64.6416 36.4411C64.9332 36.1439 65.0354 35.7093 64.9067 35.3133ZM57.3182 40.7114C57.0728 40.9614 56.9588 41.312 57.0105 41.6585L57.8997 47.6269L52.4981 44.937C52.3411 44.8589 52.1707 44.8198 52 44.8198C51.8295 44.8198 51.6588 44.8588 51.5021 44.937L46.1005 47.6269L46.9897 41.6585C47.0413 41.312 46.9274 40.9613 46.682 40.7114L42.4544 36.4053L48.4054 35.4066C48.751 35.3486 49.0493 35.1319 49.2112 34.8212L52 29.4701L54.7888 34.8214C54.9509 35.1321 55.2491 35.3488 55.5946 35.4067L61.5458 36.4055L57.3182 40.7114Z" fill="black"/>
<path d="M68.9209 40.6338C68.3093 40.5521 67.7478 40.9828 67.6669 41.5945C66.6307 49.4147 59.8954 55.3121 52 55.3121C43.2851 55.3121 36.195 48.2221 36.195 39.5071C36.195 30.7921 43.2851 23.7022 52 23.7022C59.8956 23.7022 66.6307 29.5995 67.6669 37.4198C67.7478 38.0315 68.3103 38.4625 68.9209 38.3804C69.5323 38.2994 69.9626 37.7379 69.8814 37.1264C68.6989 28.1998 61.0115 21.4681 52 21.4681C42.0533 21.4681 33.961 29.5603 33.961 39.5071C33.961 49.454 42.0533 57.546 52 57.546C61.0115 57.546 68.6989 50.8144 69.8816 41.8877C69.9626 41.2764 69.5325 40.7149 68.9209 40.6338Z" fill="black"/>
</g>
<defs>
<clipPath id="clip0">
<rect width="70" height="70" fill="white" transform="translate(17 17)"/>
</clipPath>
</defs>
</svg>
