<svg width="171" height="47" viewBox="0 0 171 47" fill="none" xmlns="http://www.w3.org/2000/svg">
<path d="M67.836 25V18.268L65.694 23.002H63.822L61.68 18.268V25H58.17V12.22H62.004L64.758 18.232L67.53 12.22H71.346V25H67.836ZM62.796 45.064C61.836 44.944 61.008 44.722 60.312 44.398C59.628 44.074 59.058 43.666 58.602 43.174C58.158 42.682 57.828 42.118 57.612 41.482C57.396 40.846 57.288 40.156 57.288 39.412C57.288 38.704 57.39 38.038 57.594 37.414C57.798 36.778 58.116 36.214 58.548 35.722C58.992 35.218 59.562 34.798 60.258 34.462C60.954 34.114 61.8 33.874 62.796 33.742V31.96H66.108V33.742C67.092 33.874 67.932 34.114 68.628 34.462C69.324 34.798 69.894 35.218 70.338 35.722C70.782 36.214 71.106 36.778 71.31 37.414C71.514 38.038 71.616 38.704 71.616 39.412C71.616 40.156 71.508 40.846 71.292 41.482C71.076 42.106 70.74 42.664 70.284 43.156C69.84 43.636 69.27 44.044 68.574 44.38C67.878 44.704 67.056 44.926 66.108 45.046V46.54H62.796V45.064ZM66.108 41.824C66.912 41.656 67.47 41.362 67.782 40.942C68.094 40.522 68.25 40.006 68.25 39.394C68.25 38.746 68.088 38.224 67.764 37.828C67.452 37.432 66.9 37.15 66.108 36.982V41.824ZM62.796 36.982C62.004 37.15 61.446 37.432 61.122 37.828C60.798 38.224 60.636 38.746 60.636 39.394C60.636 40.006 60.792 40.522 61.104 40.942C61.428 41.362 61.992 41.656 62.796 41.824V36.982Z" fill="#0038FF"/>
<path d="M76.9315 12.22H80.1355L84.5635 25H80.9995L80.2255 22.498H76.8235L76.0675 25H72.4855L76.9315 12.22ZM79.6675 20.158L78.5335 16.198L77.3455 20.158H79.6675ZM95.5073 8.512C95.5073 8.944 95.4173 9.34 95.2373 9.7C95.0573 10.048 94.7993 10.354 94.4633 10.618C94.1273 10.87 93.7253 11.068 93.2573 11.212C92.8013 11.356 92.2973 11.428 91.7453 11.428C91.1813 11.428 90.6713 11.356 90.2153 11.212C89.7593 11.068 89.3633 10.87 89.0273 10.618C88.6913 10.354 88.4333 10.048 88.2533 9.7C88.0733 9.34 87.9833 8.944 87.9833 8.512H90.1073C90.1073 8.824 90.2693 9.088 90.5933 9.304C90.9293 9.508 91.3133 9.61 91.7453 9.61C92.1653 9.61 92.5253 9.508 92.8253 9.304C93.1373 9.088 93.3233 8.824 93.3833 8.512H95.5073ZM89.2073 19.528L94.6433 12.22H97.1993V25H93.6893V17.908L88.3073 25H85.6973V12.22H89.2073V19.528ZM98.7573 18.502C98.7573 17.722 98.9013 16.954 99.1893 16.198C99.4893 15.442 99.9213 14.764 100.485 14.164C101.049 13.564 101.733 13.078 102.537 12.706C103.341 12.334 104.259 12.148 105.291 12.148C106.527 12.148 107.595 12.406 108.495 12.922C109.407 13.426 110.085 14.098 110.529 14.938L107.847 16.846C107.727 16.534 107.565 16.276 107.361 16.072C107.169 15.868 106.953 15.706 106.713 15.586C106.473 15.466 106.221 15.382 105.957 15.334C105.705 15.286 105.459 15.262 105.219 15.262C104.715 15.262 104.277 15.364 103.905 15.568C103.545 15.76 103.245 16.018 103.005 16.342C102.777 16.654 102.603 17.014 102.483 17.422C102.375 17.818 102.321 18.214 102.321 18.61C102.321 19.054 102.387 19.48 102.519 19.888C102.651 20.296 102.843 20.656 103.095 20.968C103.347 21.28 103.653 21.532 104.013 21.724C104.385 21.904 104.799 21.994 105.255 21.994C105.495 21.994 105.741 21.97 105.993 21.922C106.245 21.862 106.485 21.772 106.713 21.652C106.953 21.52 107.163 21.358 107.343 21.166C107.535 20.962 107.685 20.716 107.793 20.428L110.655 22.138C110.463 22.606 110.169 23.026 109.773 23.398C109.389 23.77 108.945 24.082 108.441 24.334C107.949 24.586 107.415 24.778 106.839 24.91C106.275 25.042 105.723 25.108 105.183 25.108C104.235 25.108 103.365 24.922 102.573 24.55C101.793 24.166 101.115 23.662 100.539 23.038C99.9753 22.414 99.5373 21.706 99.2253 20.914C98.9133 20.122 98.7573 19.318 98.7573 18.502ZM121.859 15.28H118.187V25H114.677V15.28H110.987V12.22H121.859V15.28ZM132.317 21.94V25H123.209V12.22H132.155V15.28H126.719V17.08H131.363V19.924H126.719V21.94H132.317ZM134.02 25V12.22H139.528C140.152 12.22 140.728 12.352 141.256 12.616C141.784 12.868 142.234 13.204 142.606 13.624C142.99 14.032 143.29 14.506 143.506 15.046C143.722 15.574 143.83 16.108 143.83 16.648C143.83 17.212 143.728 17.764 143.524 18.304C143.32 18.832 143.032 19.306 142.66 19.726C142.3 20.134 141.856 20.464 141.328 20.716C140.812 20.956 140.242 21.076 139.618 21.076H137.53V25H134.02ZM137.53 18.016H139.384C139.6 18.016 139.798 17.92 139.978 17.728C140.17 17.524 140.266 17.164 140.266 16.648C140.266 16.12 140.158 15.76 139.942 15.568C139.726 15.376 139.51 15.28 139.294 15.28H137.53V18.016ZM156.609 12.22V25H153.099V19.996H148.815V25H145.305V12.22H148.815V16.936H153.099V12.22H156.609ZM165.497 25V20.536H164.561L161.753 25H157.991L161.069 20.14C160.373 19.816 159.827 19.336 159.431 18.7C159.035 18.052 158.837 17.278 158.837 16.378C158.837 15.766 158.945 15.208 159.161 14.704C159.377 14.2 159.671 13.762 160.043 13.39C160.427 13.018 160.883 12.73 161.411 12.526C161.939 12.322 162.515 12.22 163.139 12.22H169.007V25H165.497ZM165.497 15.19H163.643C163.499 15.19 163.349 15.208 163.193 15.244C163.049 15.28 162.917 15.346 162.797 15.442C162.689 15.526 162.593 15.646 162.509 15.802C162.437 15.958 162.401 16.15 162.401 16.378C162.401 16.618 162.437 16.816 162.509 16.972C162.581 17.116 162.671 17.236 162.779 17.332C162.899 17.416 163.031 17.476 163.175 17.512C163.331 17.548 163.487 17.566 163.643 17.566H165.497V15.19ZM78.7643 46.108C77.7923 46.108 76.9103 45.922 76.1183 45.55C75.3263 45.178 74.6483 44.692 74.0843 44.092C73.5203 43.48 73.0823 42.784 72.7703 42.004C72.4583 41.224 72.3023 40.42 72.3023 39.592C72.3023 38.752 72.4643 37.942 72.7883 37.162C73.1123 36.382 73.5623 35.698 74.1383 35.11C74.7263 34.51 75.4163 34.036 76.2083 33.688C77.0123 33.328 77.8883 33.148 78.8363 33.148C79.8083 33.148 80.6903 33.334 81.4823 33.706C82.2743 34.078 82.9523 34.57 83.5163 35.182C84.0803 35.794 84.5123 36.49 84.8123 37.27C85.1243 38.05 85.2803 38.848 85.2803 39.664C85.2803 40.504 85.1183 41.314 84.7943 42.094C84.4703 42.862 84.0203 43.546 83.4443 44.146C82.8683 44.734 82.1783 45.208 81.3743 45.568C80.5823 45.928 79.7123 46.108 78.7643 46.108ZM75.8663 39.628C75.8663 40.06 75.9263 40.48 76.0463 40.888C76.1663 41.284 76.3463 41.638 76.5863 41.95C76.8263 42.262 77.1263 42.514 77.4863 42.706C77.8583 42.898 78.2963 42.994 78.8003 42.994C79.3043 42.994 79.7423 42.898 80.1143 42.706C80.4863 42.502 80.7863 42.244 81.0143 41.932C81.2543 41.608 81.4283 41.242 81.5363 40.834C81.6563 40.426 81.7163 40.012 81.7163 39.592C81.7163 39.16 81.6563 38.746 81.5363 38.35C81.4163 37.942 81.2303 37.588 80.9783 37.288C80.7383 36.976 80.4323 36.73 80.0603 36.55C79.7003 36.358 79.2743 36.262 78.7823 36.262C78.2783 36.262 77.8403 36.358 77.4683 36.55C77.1083 36.742 76.8083 37 76.5683 37.324C76.3283 37.636 76.1483 37.996 76.0283 38.404C75.9203 38.8 75.8663 39.208 75.8663 39.628ZM98.1439 33.22V46H94.6339V40.996H90.3499V46H86.8399V33.22H90.3499V37.936H94.6339V33.22H98.1439ZM110.363 36.28H106.691V46H103.181V36.28H99.4905V33.22H110.363V36.28ZM113.81 33.22H117.014L121.442 46H117.878L117.104 43.498H113.702L112.946 46H109.364L113.81 33.22ZM116.546 41.158L115.412 37.198L114.224 41.158H116.546ZM133.88 33.22V46H130.37V40.996H126.086V46H122.576V33.22H126.086V37.936H130.37V33.22H133.88ZM136.145 46V33.22H139.655V46H136.145ZM152.802 42.724C152.802 43.3 152.682 43.798 152.442 44.218C152.202 44.626 151.872 44.962 151.452 45.226C151.032 45.49 150.54 45.688 149.976 45.82C149.424 45.94 148.836 46 148.212 46H141.93V33.22H149.346C149.79 33.22 150.192 33.316 150.552 33.508C150.912 33.7 151.218 33.952 151.47 34.264C151.722 34.564 151.914 34.912 152.046 35.308C152.19 35.692 152.262 36.088 152.262 36.496C152.262 37.096 152.106 37.672 151.794 38.224C151.494 38.764 151.038 39.172 150.426 39.448C151.158 39.664 151.734 40.042 152.154 40.582C152.586 41.11 152.802 41.824 152.802 42.724ZM149.238 42.004C149.238 41.692 149.154 41.434 148.986 41.23C148.818 41.014 148.602 40.906 148.338 40.906H145.44V43.048H148.212C148.5 43.048 148.74 42.958 148.932 42.778C149.136 42.598 149.238 42.34 149.238 42.004ZM145.44 36.208V38.17H147.834C148.074 38.17 148.29 38.104 148.482 37.972C148.686 37.84 148.788 37.576 148.788 37.18C148.788 36.832 148.704 36.586 148.536 36.442C148.368 36.286 148.17 36.208 147.942 36.208H145.44Z" fill="black"/>
<g clip-path="url(#clip0)">
<path d="M40.0664 39.2158L41.5919 36.3995C41.8091 36.3862 42.0279 36.337 42.2441 36.337H48.1207L49.3242 37.8739C49.4856 41.5789 49.4232 44.8559 47.7257 48.3426C45.1263 49.0594 41.1455 48.8099 39.3027 47.1278C39.6734 46.6913 38.448 46.2645 38.7097 45.8443C40.0817 43.6411 40.0827 41.5163 40.0664 39.2158Z" fill="#E6EEFF"/>
<path d="M41.592 36.3995L41.6034 39.2158C41.6228 41.955 41.6177 44.4023 39.3029 47.1279C38.8236 46.6901 38.5265 46.1954 38.5265 45.6613C38.5265 47.9201 34.4067 48.7761 32.0997 48.7212L30.5856 46.3017C30.7223 41.0298 36.2874 36.7255 41.592 36.3995Z" fill="#DAE2F2"/>
<path d="M7.62939e-06 25.5783C7.62939e-06 27.4841 0.522469 29.3591 1.47538 31.019C2.64347 32.9556 4.30349 34.462 6.30144 35.3533C5.74813 39.9949 6.79337 44.7083 9.28324 48.6121C11.8961 48.2739 13.8326 47.0751 13.8326 45.6612C13.8326 49.7188 26.2308 49.7188 26.2308 45.6612C26.2308 47.321 28.8435 48.6428 32.1019 48.7351L32.1326 47.8436C32.2557 42.3414 36.7435 37.8739 42.2459 37.8739H49.326C48.9879 30.0661 42.5224 23.8569 35.0528 24.0413C31.4564 24.1642 28.4746 25.609 26.2307 27.6377C23.372 30.1891 21.6711 33.6319 21.6711 36.337C21.6711 38.0276 20.2879 39.4109 18.5972 39.4109C16.3534 39.4109 14.8779 37.0439 15.8 35.0766C17.3677 34.2467 18.7203 33.0479 19.7346 31.5417C20.9027 29.7588 21.5174 27.6993 21.5174 25.5783C21.5174 24.7175 20.8413 24.0413 19.9805 24.0413H13.8326C12.6646 24.0413 11.5888 24.5023 10.7587 25.2094C9.92866 24.5023 8.85289 24.0413 7.6848 24.0413H1.53696C0.676167 24.0413 7.62939e-06 24.7175 7.62939e-06 25.5783Z" fill="#A1A7B3"/>
<path d="M3.8147e-06 25.5782C3.8147e-06 27.484 0.522467 29.359 1.47538 31.019C2.64347 32.9555 4.30349 34.4619 6.30143 35.3533C5.74813 39.9949 6.79336 44.7082 9.28324 48.612C11.8961 48.2739 13.8326 47.075 13.8326 45.6611C13.8326 49.7187 26.2308 49.7187 26.2308 45.6611V27.6376C23.372 30.1891 21.6711 33.6319 21.6711 36.3369C21.6711 38.0276 20.2879 39.4108 18.5972 39.4108C16.3534 39.4108 14.8779 37.0438 15.8 35.0765C17.3677 34.2467 18.7203 33.0478 19.7346 31.5416C20.9026 29.7587 21.5174 27.6992 21.5174 25.5782C21.5174 24.7174 20.8413 24.0413 19.9805 24.0413H13.8326C12.6645 24.0413 11.5888 24.5022 10.7587 25.2093C9.92866 24.5022 8.85289 24.0413 7.6848 24.0413H1.53696C0.676163 24.0413 3.8147e-06 24.7174 3.8147e-06 25.5782Z" fill="#979CA7"/>
<path d="M32.3786 36.3369C31.5298 36.3369 30.8417 35.6488 30.8417 34.8C30.8417 33.9511 31.5298 33.263 32.3786 33.263C33.2275 33.263 33.9156 33.9511 33.9156 34.8C33.9156 35.6488 33.2275 36.3369 32.3786 36.3369Z" fill="#53565C"/>
</g>
<path d="M35.919 13.0366C35.919 11.5873 35.743 10.1521 35.401 8.81309C35.059 7.47406 34.5577 6.25739 33.9257 5.23255C33.2937 4.20771 32.5435 3.39475 31.7178 2.84011C30.8921 2.28547 30.0071 2 29.1134 2C28.2196 2 27.3346 2.28547 26.5089 2.84011C25.6832 3.39475 24.933 4.20771 24.301 5.23255C23.669 6.2574 23.1677 7.47406 22.8257 8.81309C22.4837 10.1521 22.3077 11.5873 22.3077 13.0366" stroke="#0038FF" stroke-width="3" stroke-linecap="round" stroke-linejoin="round"/>
<path d="M49.502 13.0366C49.502 11.5873 49.326 10.1521 48.984 8.81309C48.642 7.47406 48.1407 6.25739 47.5087 5.23255C46.8767 4.20771 46.1265 3.39475 45.3008 2.84011C44.4751 2.28547 43.5901 2 42.6964 2C41.8026 2 40.9176 2.28547 40.0919 2.84011C39.2662 3.39475 38.516 4.20771 37.884 5.23255C37.2521 6.2574 36.7508 7.47406 36.4087 8.81309C36.0667 10.1521 35.8907 11.5873 35.8907 13.0366" stroke="#0038FF" stroke-width="3" stroke-linecap="round" stroke-linejoin="round"/>
<path d="M35.9048 21.1744L35.9048 11.1744" stroke="#0038FF" stroke-width="3" stroke-linecap="round" stroke-linejoin="round"/>
<defs>
<clipPath id="clip0">
<rect width="52.4615" height="40.5047" fill="white" transform="matrix(-1 0 0 1 52.4615 5.4953)"/>
</clipPath>
</defs>
</svg>
