<svg width="104" height="104" viewBox="0 0 104 104" fill="none" xmlns="http://www.w3.org/2000/svg">
<path d="M52 103C80.1665 103 103 80.1665 103 52C103 23.8335 80.1665 1 52 1C23.8335 1 1 23.8335 1 52C1 80.1665 23.8335 103 52 103Z" fill="white" stroke="#0038FF" stroke-width="2"/>
<path d="M83.5 43.5H83.4533C83.0109 30.5657 74.6661 19.2327 62.4463 14.9703C62.1856 13.2667 60.7235 12.0066 59 12H45C43.2765 12.0066 41.8144 13.2667 41.5537 14.9703C29.3339 19.2327 20.9891 30.5657 20.5467 43.5H20.5C18.567 43.5 17 45.067 17 47V49.3333C17 51.2664 18.567 52.8333 20.5 52.8333H83.5C85.433 52.8333 87 51.2664 87 49.3333V47C87 45.067 85.433 43.5 83.5 43.5ZM41.5 17.4728V37.6667C41.5 38.311 42.0224 38.8333 42.6667 38.8333C43.311 38.8333 43.8333 38.311 43.8333 37.6667V15.5C43.8333 14.8557 44.3557 14.3333 45 14.3333H50.8333V40C50.8333 40.6443 51.3557 41.1667 52 41.1667C52.6443 41.1667 53.1667 40.6443 53.1667 40V14.3333H59C59.6443 14.3333 60.1667 14.8557 60.1667 15.5V37.6667C60.1667 38.311 60.689 38.8333 61.3333 38.8333C61.9776 38.8333 62.5 38.311 62.5 37.6667V17.4728C73.3605 21.6346 80.6882 31.8774 81.12 43.5H22.88C23.3118 31.8774 30.6395 21.6346 41.5 17.4728ZM84.6667 49.3333C84.6667 49.9776 84.1443 50.5 83.5 50.5H20.5C19.8557 50.5 19.3333 49.9776 19.3333 49.3333V47C19.3333 46.3557 19.8557 45.8333 20.5 45.8333H83.5C84.1443 45.8333 84.6667 46.3557 84.6667 47V49.3333Z" fill="black"/>
<path d="M85.8333 63.3333H81.05C80.4919 60.6192 78.1043 58.6701 75.3333 58.6666H28.6667C25.4467 58.6704 22.8371 61.28 22.8333 64.5H18.1667C17.5224 64.5 17 65.0223 17 65.6666V75C17 75.6443 17.5224 76.1666 18.1667 76.1666H23.1833C24.2171 79.6221 27.3931 81.9922 31 82H38C43.3387 81.9848 48.2805 79.1788 51.0293 74.6021C51.3642 74.066 52.0703 73.903 52.6064 74.2378C52.754 74.33 52.8785 74.4545 52.9707 74.6021C55.7195 79.1788 60.6613 81.9848 66 82H73C77.0561 81.9951 80.4939 79.0143 81.0733 75H85.8333C86.4776 75 87 74.4776 87 73.8333V64.5C87 63.8557 86.4776 63.3333 85.8333 63.3333ZM22.8333 73.8333H19.3333V70.3333H22.8333V73.8333ZM22.8333 68H19.3333V66.8333H22.8333V68ZM78.8333 73.8333C78.8295 77.0533 76.22 79.6628 73 79.6666H66C61.4816 79.6534 57.2991 77.2785 54.9727 73.4051C53.9791 71.762 51.8416 71.2356 50.1987 72.2291C49.7173 72.5202 49.3137 72.9237 49.0227 73.4051C46.6971 77.277 42.5166 79.6518 38 79.6666H31C27.78 79.6628 25.1705 77.0533 25.1667 73.8333V64.5C25.1667 62.5669 26.7336 61 28.6667 61H75.3333C77.2664 61 78.8333 62.5669 78.8333 64.5V73.8333ZM84.6667 72.6666H81.1667V69.1666H84.6667V72.6666ZM84.6667 66.8333H81.1667V65.6666H84.6667V66.8333Z" fill="black"/>
</svg>
